<svg xmlns="http://www.w3.org/2000/svg" width="18.034" height="12.689" viewBox="0 0 18.034 12.689">
  <g id="noun_hide_2040068" transform="translate(0.001 0)">
    <g id="Group_187" data-name="Group 187" transform="translate(-0.001 0)">
      <g id="Group_186" data-name="Group 186">
        <path id="Path_197" data-name="Path 197" d="M35.271,27.547c.152-.19,3.983-4.647,8.82-4.647a8.785,8.785,0,0,1,2.845.493l-6.259,4.742a3.534,3.534,0,0,1,.285-3,14.655,14.655,0,0,0-4.059,2.9,16.745,16.745,0,0,0,1.84,1.574l-1.271.967a17.59,17.59,0,0,1-2.2-2.049A.8.8,0,0,1,35.271,27.547Z" transform="translate(-35.1 -21.705)" fill="gray"/>
        <path id="Path_198" data-name="Path 198" d="M2.719,27.906l14.7-11.153a.759.759,0,0,1,.91,1.214L16.11,19.655a16.774,16.774,0,0,1,3.262,2.788.75.75,0,0,1,0,.986c-.152.19-3.983,4.647-8.839,4.647A9.663,9.663,0,0,1,6.38,27.052L3.648,29.139a.817.817,0,0,1-.455.152.737.737,0,0,1-.607-.3A.774.774,0,0,1,2.719,27.906Zm7.815-1.366c3.262,0,6.127-2.523,7.208-3.6a14.965,14.965,0,0,0-2.921-2.3l-.74.55a3.922,3.922,0,0,1,.057.664,3.6,3.6,0,0,1-3.6,3.6,3.386,3.386,0,0,1-1.574-.379l-1.176.891A7.063,7.063,0,0,0,10.534,26.54Z" transform="translate(-1.524 -16.601)" fill="gray"/>
      </g>
    </g>
  </g>
</svg>
