<svg id="Group_9" data-name="Group 9" xmlns="http://www.w3.org/2000/svg" width="8.086" height="14.955" viewBox="0 0 8.086 14.955">
  <path id="Path_4" data-name="Path 4" d="M29.858,0,27.919,0a3.406,3.406,0,0,0-3.587,3.681v1.7h-1.95a.3.3,0,0,0-.3.305V8.141a.3.3,0,0,0,.3.3h1.95v6.2a.3.3,0,0,0,.3.3h2.544a.3.3,0,0,0,.3-.3v-6.2h2.28a.3.3,0,0,0,.3-.3V5.683a.305.305,0,0,0-.305-.305H27.486V3.939c0-.691.165-1.042,1.065-1.042h1.306a.3.3,0,0,0,.3-.3V.308A.305.305,0,0,0,29.858,0Z" transform="translate(-22.077)" fill="#fff"/>
</svg>
