<svg xmlns="http://www.w3.org/2000/svg" width="27.081" height="27.081" viewBox="0 0 27.081 27.081">
  <g id="Group_14728" data-name="Group 14728" transform="translate(-12956.18 -6286.144)">
    <path id="Path_34965" data-name="Path 34965" d="M13.54,0A13.54,13.54,0,1,1,0,13.54,13.54,13.54,0,0,1,13.54,0Z" transform="translate(12956.18 6286.144)" opacity="0.075"/>
    <path id="Path_34966" data-name="Path 34966" d="M438.18,2h6.054a4.183,4.183,0,0,1,4.18,4.18v6.054a4.18,4.18,0,0,1-4.18,4.18H438.18a4.183,4.183,0,0,1-4.18-4.18V6.18A4.18,4.18,0,0,1,438.18,2m-.144,1.441a2.6,2.6,0,0,0-2.595,2.595h0v6.342a2.593,2.593,0,0,0,2.595,2.595h6.342a2.6,2.6,0,0,0,2.595-2.595h0V6.036a2.593,2.593,0,0,0-2.595-2.595h-6.342m6.955,1.081a.9.9,0,1,1-.9.9.9.9,0,0,1,.9-.9M441.207,5.6a3.6,3.6,0,1,1-3.6,3.6,3.6,3.6,0,0,1,3.6-3.6m0,1.441a2.162,2.162,0,1,0,2.162,2.162A2.162,2.162,0,0,0,441.207,7.045Z" transform="translate(12529.199 6290.837)"/>
  </g>
</svg>
