<svg xmlns="http://www.w3.org/2000/svg" width="27.081" height="27.081" viewBox="0 0 27.081 27.081">
  <g id="Group_14725" data-name="Group 14725" transform="translate(-13055.414 -6286.144)">
    <path id="Path_33013" data-name="Path 33013" d="M13.54,0A13.54,13.54,0,1,1,0,13.54,13.54,13.54,0,0,1,13.54,0Z" transform="translate(13055.414 6286.144)" opacity="0.08"/>
    <path id="Path_34967" data-name="Path 34967" d="M15.973,63.973H13.09V59.108a1.62,1.62,0,0,0-1.622-1.4,1.3,1.3,0,0,0-1.261,1.4v4.865H7.324V55.324h2.883v1.441A3.305,3.305,0,0,1,12.73,55.5a3.25,3.25,0,0,1,3.243,3.25v5.225m-10.09,0H3V55.324H5.883v8.649M4.441,51A1.441,1.441,0,1,1,3,52.441,1.446,1.446,0,0,1,4.441,51Z" transform="translate(13060.379 6241.117)"/>
  </g>
</svg>
