<svg xmlns="http://www.w3.org/2000/svg" width="69.601" height="76.446" viewBox="0 0 69.601 76.446">
  <g id="Group_13697" data-name="Group 13697" transform="translate(-5081.729 -1349.69)">
    <g id="_Group_" data-name="&lt;Group&gt;" transform="translate(5102.854 1387.666)">
      <path id="_Path_" data-name="&lt;Path&gt;" d="M1198.872,410.266a29.833,29.833,0,0,1-12.323-7.643,27.287,27.287,0,0,1-7.229-25.392,27.751,27.751,0,0,0,6.487,27.06,26.33,26.33,0,0,0,11.651,7.1Z" transform="translate(-1178.165 -377.223)"/>
      <path id="_Path_2" data-name="&lt;Path&gt;" d="M1199.342,410.1a18.981,18.981,0,0,1-2.271-.373,22.166,22.166,0,0,1-10.707-6.308,28.818,28.818,0,0,1-7.46-13.854,25.178,25.178,0,0,1-.51-5.837,38.4,38.4,0,0,1,.892-6.36.032.032,0,0,1,0-.013c.009-.039.038-.169.036-.169a.021.021,0,0,0,0,.007,27.751,27.751,0,0,0,6.487,27.06,29.119,29.119,0,0,0,4.408,3.713,25.458,25.458,0,0,0,6.164,2.984Z" transform="translate(-1178.165 -377.19)"/>
    </g>
    <g id="_Group_2" data-name="&lt;Group&gt;" transform="translate(5081.729 1369.206)">
      <path id="_Path_3" data-name="&lt;Path&gt;" d="M1130.049,355.072a23.335,23.335,0,0,1-2.62-4.927,36.584,36.584,0,0,1-2.4-11.85c-.251-3.28.018-3.349-.327-6.2a31.534,31.534,0,0,0-1.62-7.512c-.106.022.221,1.776.487,4.137.607,5.369.241,8.024.348,10.969.074,2.024.411,11.233,6.579,17.515a20.184,20.184,0,0,0,7.414,4.726A22.456,22.456,0,0,1,1130.049,355.072Z" transform="translate(-1111.834 -315.566)"/>
      <path id="_Path_4" data-name="&lt;Path&gt;" d="M1089.155,280.849c-.007-.916.059-1.339.032-1.907,0,0-.029-.372-.075-.7-.257-1.769-2.106-3.385-1.84-3.771.293-.427,3.151.627,5.489,2.848a7.7,7.7,0,0,1,1.454,1.885,8.958,8.958,0,0,1,.639,1.564,13.823,13.823,0,0,1-.514,7,12.237,12.237,0,0,1-.67-1.282,24.453,24.453,0,0,1-1.1-3.706,16.956,16.956,0,0,0-1.431-3.237,23.993,23.993,0,0,0-1.875-2.973,35.235,35.235,0,0,1,3.819,11.879,6.767,6.767,0,0,1-2.988-2.729A9.685,9.685,0,0,1,1089.155,280.849Z" transform="translate(-1082.445 -274.38)"/>
      <path id="_Path_5" data-name="&lt;Path&gt;" d="M1089.528,279.78a7.719,7.719,0,0,1,1.531,3.593,14.759,14.759,0,0,1-.032,1.907,9.675,9.675,0,0,0,.946,4.866,6.758,6.758,0,0,0,2.988,2.731,8.374,8.374,0,0,1-1.359-1.646,9.573,9.573,0,0,1-.882-1.853,15.122,15.122,0,0,1-.711-2.569c-.142-.724-.1-.724-.262-1.67a16.921,16.921,0,0,0-.578-2.63A6.923,6.923,0,0,0,1089.528,279.78Z" transform="translate(-1084.317 -278.81)"/>
      <path id="_Path_6" data-name="&lt;Path&gt;" d="M1060.51,349.245a6.254,6.254,0,0,1,1.636-.077,8.429,8.429,0,0,1,2.783.842,17.308,17.308,0,0,1,1.814.91,4.131,4.131,0,0,0,1.81.549,4.308,4.308,0,0,0,2.84-.9,4.586,4.586,0,0,0-.625-1.46,5.63,5.63,0,0,0-3.754-2.225,6.828,6.828,0,0,0-6.5,2.363Z" transform="translate(-1060.51 -333.768)"/>
      <path id="_Path_7" data-name="&lt;Path&gt;" d="M1060.51,355.031a6.254,6.254,0,0,1,1.636-.077,8.429,8.429,0,0,1,2.783.842,17.3,17.3,0,0,1,1.814.91,4.131,4.131,0,0,0,1.81.549,4.308,4.308,0,0,0,2.84-.9c-.413-.206-1.018-.5-1.761-.835a23.131,23.131,0,0,0-2.964-1.2,7.26,7.26,0,0,0-4.264-.276A5.6,5.6,0,0,0,1060.51,355.031Z" transform="translate(-1060.51 -339.554)"/>
    </g>
    <g id="_Group_3" data-name="&lt;Group&gt;" transform="translate(5095.564 1349.691)">
      <path id="_Path_8" data-name="&lt;Path&gt;" d="M1139.042,277.4a33.648,33.648,0,0,1-.262-7.453A27.476,27.476,0,0,1,1146,252.622a30.166,30.166,0,0,1,4.83-4.268,50.629,50.629,0,0,1,9.732-5.374,24.238,24.238,0,0,0-7.455,2.858,30.687,30.687,0,0,0-10.175,8.766c-8.083,11.129-4.738,24.336-4.369,25.7a27.23,27.23,0,0,0,5.607,10.89A37.788,37.788,0,0,1,1139.042,277.4Z" transform="translate(-1137.563 -229.092)"/>
      <g id="_Group_4" data-name="&lt;Group&gt;" transform="translate(16.502 0)">
        <path id="_Path_9" data-name="&lt;Path&gt;" d="M1237.406,171.318c1.187-.465,1.772-.589,2.5-.909,0,0,.469-.219.871-.443,2.176-1.212,3.359-4.422,3.995-4.27.7.171.749,4.413-.98,8.559a10.714,10.714,0,0,1-1.731,2.83,12.482,12.482,0,0,1-1.72,1.611c-1.691,1.286-5.06,2.444-9.36,2.8a17.016,17.016,0,0,1,1.336-1.506c1.612-1.614,2.623-1.977,4.28-3.268a23.668,23.668,0,0,0,3.5-3.471,33.517,33.517,0,0,0,2.939-3.916,49.2,49.2,0,0,1-13.567,10.872,9.414,9.414,0,0,1,2.07-5.245A13.442,13.442,0,0,1,1237.406,171.318Z" transform="translate(-1229.47 -165.691)"/>
        <path id="_Path_10" data-name="&lt;Path&gt;" d="M1243.82,170.939a10.736,10.736,0,0,1-3.916,3.776,20.6,20.6,0,0,1-2.5.909,13.442,13.442,0,0,0-5.866,3.648,9.414,9.414,0,0,0-2.07,5.245,11.715,11.715,0,0,1,1.469-2.587,13.138,13.138,0,0,1,1.975-2.067,20.887,20.887,0,0,1,2.99-2.2c.871-.544.892-.487,2.045-1.171a23.621,23.621,0,0,0,3.135-2.059A9.682,9.682,0,0,0,1243.82,170.939Z" transform="translate(-1229.47 -169.996)"/>
      </g>
      <g id="_Group_5" data-name="&lt;Group&gt;" transform="translate(9.377 1.366)">
        <path id="_Path_11" data-name="&lt;Path&gt;" d="M1189.79,173.3a8.768,8.768,0,0,1,.914,2.09,11.729,11.729,0,0,1,.285,4.042,24.6,24.6,0,0,1-.282,2.814,5.735,5.735,0,0,0,.181,2.627,6,6,0,0,0,2.587,3.25,6.416,6.416,0,0,0,1.591-1.539,7.828,7.828,0,0,0,1.029-5.992,9.514,9.514,0,0,0-6.306-7.292Z" transform="translate(-1189.79 -173.3)"/>
        <path id="_Path_12" data-name="&lt;Path&gt;" d="M1189.79,173.3a8.768,8.768,0,0,1,.914,2.09,11.729,11.729,0,0,1,.285,4.042,24.6,24.6,0,0,1-.282,2.814,5.735,5.735,0,0,0,.181,2.627,6,6,0,0,0,2.587,3.25c.063-.639.146-1.573.212-2.706a31.813,31.813,0,0,0,.1-4.458,10.12,10.12,0,0,0-1.756-5.688A7.826,7.826,0,0,0,1189.79,173.3Z" transform="translate(-1189.79 -173.3)"/>
      </g>
    </g>
    <g id="_Group_6" data-name="&lt;Group&gt;" transform="translate(5122.823 1367.852)">
      <path id="_Path_13" data-name="&lt;Path&gt;" d="M1289.38,268.034q5.281-1.207,7.505,5.282.094,1.018,14.736,1.111,5.179.186,6.25,1.39Q1306.32,263.566,1289.38,268.034Z" transform="translate(-1289.38 -266.84)"/>
      <path id="_Path_14" data-name="&lt;Path&gt;" d="M1322.753,274.581c-4.972-1.149-10.163-1.257-10.331-.463-.086.4,1.207.672,2.313,2.25a6.658,6.658,0,0,1,1.052,2.5,12.35,12.35,0,0,0,1.878.521,105.778,105.778,0,0,0,12.858.591q5.179.186,6.25,1.39a34.6,34.6,0,0,0-3.225-2.311,36.033,36.033,0,0,0-4.139-2.23A35.612,35.612,0,0,0,1322.753,274.581Z" transform="translate(-1308.281 -272.39)"/>
      <g id="_Group_7" data-name="&lt;Group&gt;" transform="translate(6.764 4.738)">
        <path id="_Path_15" data-name="&lt;Path&gt;" d="M1327.05,293.23c1.257.18,2.564.336,3.92.46a78.118,78.118,0,0,0,7.825.329,16.532,16.532,0,0,1,9.983,3.381,18.459,18.459,0,0,0-5.106-1.257c-1.058-.1-1.381-.036-4.017-.063-1.882-.02-3.4-.04-5.051-.138-.156-.011-.91-.056-1.905-.14-.86-.072-.476-.052-2.386-.239a10.206,10.206,0,0,1-1.449-.21,8.679,8.679,0,0,1-1.013-.3c-.1-.253-.2-.514-.32-.777Q1327.294,293.727,1327.05,293.23Z" transform="translate(-1327.05 -293.23)"/>
      </g>
    </g>
    <g id="_Group_8" data-name="&lt;Group&gt;" transform="translate(5097.302 1364.478)">
      <path id="_Path_16" data-name="&lt;Path&gt;" d="M1151.532,279.4c-.016-1.638.086-14.472,10.841-22.891a28.43,28.43,0,0,1,38.964,3.893c-5.047-6.038-12.1-11.9-20.857-12.326-.522-.025-.935-.027-1.275-.025-2.422,0-13.324.005-22.022,7.81A28.746,28.746,0,0,0,1149.232,268a35.034,35.034,0,0,0-1.882,11.9,30.6,30.6,0,0,0,6.87,19.233c.648.776,9.414,10.9,23.354,10.563a29.261,29.261,0,0,0,11.859-2.871c-1.325.418-14.45,4.3-26.132-4.356C1162.167,301.633,1151.663,293.566,1151.532,279.4Z" transform="translate(-1147.326 -248.047)"/>
      <path id="_Path_17" data-name="&lt;Path&gt;" d="M1147.269,279.9c-.068-1.232-.616-15.147,10.543-24.658a30.633,30.633,0,0,1,19.2-7.148c2.286-.027,8.654-.153,14.156,3.379,4.148,2.663,9.926,8.755,9.978,8.811,0,.005.126.135.127.133s0-.007-.014-.02c-5.047-6.038-12.1-11.9-20.857-12.326-.522-.025-.935-.027-1.275-.025-2.422,0-13.324.005-22.022,7.81A28.747,28.747,0,0,0,1149.151,268a35.026,35.026,0,0,0-1.882,11.9,30.6,30.6,0,0,0,6.87,19.233c.648.776,9.414,10.9,23.354,10.563a29.261,29.261,0,0,0,11.859-2.871l-.031.013a32.827,32.827,0,0,1-8.821,1.894,34.378,34.378,0,0,1-13.684-2.381,29.993,29.993,0,0,1-19.548-26.451Z" transform="translate(-1147.245 -248.047)"/>
      <path id="_Path_18" data-name="&lt;Path&gt;" d="M1162.68,285.8c-.016-1.638.086-14.472,10.841-22.891a28.43,28.43,0,0,1,38.964,3.893c-.029.04-9.051-10.473-21.912-10.935-9.428-.339-16.542,4.882-18,6a30.459,30.459,0,0,0-11.173,29.215,28.951,28.951,0,0,0,8.507,15.341,34.221,34.221,0,0,0,19.575,7.954,31.776,31.776,0,0,0,6.006-.126c2.25-.316,5.133-1.038,5.135-1.029a.213.213,0,0,1-.043.011c-1.325.418-14.45,4.3-26.132-4.356C1173.315,308.036,1162.811,299.969,1162.68,285.8Z" transform="translate(-1158.474 -254.451)"/>
    </g>
    <g id="_Group_9" data-name="&lt;Group&gt;" transform="translate(5115.964 1397.889)">
      <path id="_Path_19" data-name="&lt;Path&gt;" d="M1263.066,434.13q.024,10.326.052,20.65a2.134,2.134,0,0,0,.618.69,2.159,2.159,0,0,0,.754.346,4.28,4.28,0,0,0,1.077.312,7.7,7.7,0,0,0,1.068.043,3.217,3.217,0,0,1,1.747.686c.431.065,1.607.248,2.81.523a2.891,2.891,0,0,1,1.144.485,2.736,2.736,0,0,1,.53.522H1251.18a2.973,2.973,0,0,1,.661-.557,3.44,3.44,0,0,1,1.548-.454c.609-.068,1.451-.183,2.569-.384a4.409,4.409,0,0,1,2.625-.83,2.867,2.867,0,0,0,1.257-.253,2.929,2.929,0,0,0,.833-.576,3.031,3.031,0,0,0,.447-.56V434.13Z" transform="translate(-1251.18 -434.13)"/>
    </g>
    <path id="_Path_20" data-name="&lt;Path&gt;" d="M1263.066,434.13q.024,10.326.052,20.65a2.134,2.134,0,0,0,.618.69,2.159,2.159,0,0,0,.754.346,4.28,4.28,0,0,0,1.077.312,7.7,7.7,0,0,0,1.068.043,3.217,3.217,0,0,1,1.747.686c.431.065,1.607.248,2.81.523a2.891,2.891,0,0,1,1.144.485,2.736,2.736,0,0,1,.53.522H1251.18a2.973,2.973,0,0,1,.661-.557,3.44,3.44,0,0,1,1.548-.454c.609-.068,1.451-.183,2.569-.384a4.409,4.409,0,0,1,2.625-.83,2.867,2.867,0,0,0,1.257-.253,2.929,2.929,0,0,0,.833-.576,3.031,3.031,0,0,0,.447-.56V434.13Z" transform="translate(3864.784 963.759)"/>
    <g id="_Group_10" data-name="&lt;Group&gt;" transform="translate(5115.964 1420.941)">
      <path id="_Path_21" data-name="&lt;Path&gt;" d="M1272.337,563.2a2.891,2.891,0,0,0-1.144-.485c-.2-.047-.4-.09-.6-.131-.255,0-.512-.005-.767-.014-1.824-.057-3.65-.059-5.476-.045-3.543.027-7.083.135-10.626.147l-.334.039a3.44,3.44,0,0,0-1.548.454,2.973,2.973,0,0,0-.661.557h21.686A2.736,2.736,0,0,0,1272.337,563.2Z" transform="translate(-1251.18 -562.518)"/>
    </g>
    <path id="_Path_22" data-name="&lt;Path&gt;" d="M1189.25,381.49h44.2q.07,1.042-1.806,1.736a16.017,16.017,0,0,0-3.006.627,16.385,16.385,0,0,0-5.992,3.408c-.35.221-2.128,1.336-3.862,2.221a18.2,18.2,0,0,1-2.679,1.149c-.025.009-.057.02-.1.032a13.737,13.737,0,0,1-3.474.627c-.648.034-1.33.048-2.043.043a25.369,25.369,0,0,1-4.074-.321,14.569,14.569,0,0,1-6.464-3.476q-3.892-3.474-5.977-3.823Q1189.249,383.646,1189.25,381.49Z" transform="translate(3915.594 1006.948)"/>
    <path id="_Path_23" data-name="&lt;Path&gt;" d="M1226.483,383.585c-4.482.346-9.2.451-9.823.463-1.855.039-.682-.007-10.565,0-2.977,0-4.518.007-6.81-.138-1.97-.128-3.914-.327-5.135-.454-1.767-.181-3.255-.361-4.359-.5a6.755,6.755,0,0,0,2.97,1.558,6.481,6.481,0,0,0,1.659.162q2.084.347,5.977,3.823a14.569,14.569,0,0,0,6.464,3.476,25.365,25.365,0,0,0,4.074.321q1.069.008,2.043-.043a13.736,13.736,0,0,0,3.474-.627c.043-.013.075-.023.1-.032a18.186,18.186,0,0,0,2.679-1.149c1.734-.885,3.512-2,3.862-2.221a16.384,16.384,0,0,1,5.992-3.408,16.019,16.019,0,0,1,3.006-.627c1.357-.5,1.7-1.187,1.779-1.526-.83.147-1.961.332-3.309.508C1229.015,383.369,1227.708,383.49,1226.483,383.585Z" transform="translate(3915.151 1005.988)"/>
    <path id="_Path_24" data-name="&lt;Path&gt;" d="M1228.171,382.95l-.14.045c-.988.325-1.686.627-1.849.695a13.52,13.52,0,0,1-2.736.65c-1.479.284-1.8.607-4.774,1.774a33.635,33.635,0,0,1-4.817,1.7,14.015,14.015,0,0,1-5.977-.138c-3.2-.8-3.131-2.092-6.812-3.058-1.307-.345-1.284-.172-4.309-.835-2.464-.54-3.72-.953-4.309-1.111a19.283,19.283,0,0,1-3.2-1.181,1.283,1.283,0,0,0,.1.5,1.746,1.746,0,0,0,.936.833,8.168,8.168,0,0,0,1.964.715,8.529,8.529,0,0,0,1.729.172q2.084.347,5.977,3.823a14.569,14.569,0,0,0,6.464,3.476,25.369,25.369,0,0,0,4.074.321c.713.005,1.4-.009,2.043-.043a13.737,13.737,0,0,0,3.474-.627c.043-.013.075-.023.1-.032a18.2,18.2,0,0,0,2.679-1.149c1.734-.885,3.512-2,3.862-2.221a16.385,16.385,0,0,1,5.992-3.408,16.017,16.017,0,0,1,3.006-.627,2.513,2.513,0,0,0,1.029-.531,2.558,2.558,0,0,0,.777-1.2,12.647,12.647,0,0,1-2.483.785A24.524,24.524,0,0,0,1228.171,382.95Z" transform="translate(3915.594 1006.948)"/>
    <path id="_Path_25" data-name="&lt;Path&gt;" d="M1228.171,382.95c-.224.072-.943.3-1.99.74-1.4.587-2.4,1.126-2.952,1.418,0,0-2.277,1.194-4.975,2.481a36.091,36.091,0,0,1-3.706,1.661,14.45,14.45,0,0,1-7,.093,11.758,11.758,0,0,1-3.428-1.111c-.632-.332-.515-.355-3.06-2.04-1.194-.79-1.738-1.128-2.429-1.5a18.562,18.562,0,0,0-1.88-.909,28.416,28.416,0,0,0-4.309-1.111,19.283,19.283,0,0,1-3.2-1.181,1.283,1.283,0,0,0,.1.5,1.746,1.746,0,0,0,.936.833,8.168,8.168,0,0,0,1.964.715,8.529,8.529,0,0,0,1.729.172q2.084.347,5.977,3.823a14.569,14.569,0,0,0,6.464,3.476,25.369,25.369,0,0,0,4.074.321c.713.005,1.4-.009,2.043-.043a13.737,13.737,0,0,0,3.474-.627c.043-.013.075-.023.1-.032a18.2,18.2,0,0,0,2.679-1.149c1.734-.885,3.512-2,3.862-2.221a16.385,16.385,0,0,1,5.992-3.408,16.017,16.017,0,0,1,3.006-.627,2.513,2.513,0,0,0,1.029-.531,2.558,2.558,0,0,0,.777-1.2,12.647,12.647,0,0,1-2.483.785A24.524,24.524,0,0,0,1228.171,382.95Z" transform="translate(3915.594 1006.948)"/>
    <path id="_Path_26" data-name="&lt;Path&gt;" d="M1289.336,444.172a3.241,3.241,0,0,0-1.345-1.668,3.832,3.832,0,0,0-1.867-.487,5.821,5.821,0,0,0-2.517.341v1.515c.1-.02.2-.038.291-.05.736-.111,1.472-.221,1.963.255a1.768,1.768,0,0,1,.463,1.483,2.72,2.72,0,0,1-.648,1.111,2.967,2.967,0,0,1-2.178.835,9.6,9.6,0,0,1-3.823-.6,4.052,4.052,0,0,1-.512-.377c.029-.043.072-.1.124-.172a5.407,5.407,0,0,1,.4-.483,3.422,3.422,0,0,1,.774-.576.969.969,0,0,1-.043-.291v-1.3a11.753,11.753,0,0,0-2.02,1.564c-.043.04-.09.083-.135.126a4.109,4.109,0,0,1-.294-.734,2.7,2.7,0,0,1,.451-2.295,2.665,2.665,0,0,1,1.842-.973c.052-.005.1-.011.156-.018V438.66c-.07.005-.144.011-.226.022a7.247,7.247,0,0,0-2.314.681,6.093,6.093,0,0,0-1.244,1.138,5.86,5.86,0,0,0-1.049,1.866c-.009.029-.018.054-.023.074a5.534,5.534,0,0,0-.142,2.686,5.666,5.666,0,0,0,1.42,2.682,5.691,5.691,0,0,0-.179,1.067,6.97,6.97,0,0,0,.048,2.045,5.643,5.643,0,0,0,.894,2.1,5.546,5.546,0,0,0,1.747,1.63,6.884,6.884,0,0,0,2.722.8l1.246.075c.133.007.366.022.675.045.21.016.424.036.535.045a14.948,14.948,0,0,1,1.984.361,4.994,4.994,0,0,1,.734.223,4.872,4.872,0,0,1,.835.417,4.445,4.445,0,0,0-.6-.812,4.4,4.4,0,0,0-.833-.695,4.657,4.657,0,0,0-1.636-.61,7.564,7.564,0,0,0-2.164-.223,4.758,4.758,0,0,1-3.2-1.2,4.015,4.015,0,0,1-.964-1.427,4.815,4.815,0,0,1-.237-.9,7.739,7.739,0,0,1-.074-.855c-.005-.154-.007-.289-.009-.348,0-.248,0-.454.007-.609a5.631,5.631,0,0,0,2.411.567,8.944,8.944,0,0,0,1.97.16,9.773,9.773,0,0,0,5.469-1.971A3.436,3.436,0,0,0,1289.336,444.172Z" transform="translate(3844.978 960.043)"/>
    <path id="_Path_27" data-name="&lt;Path&gt;" d="M1278.258,296.7a5.876,5.876,0,0,0-1.257-1.693,6.482,6.482,0,0,0-1.979-1.194,15.987,15.987,0,0,0-2.934-.882c-1.311-.314-1.4-.267-2.467-.555-.661-.178-1.154-.339-2.14-.661a23.774,23.774,0,0,1-2.551-.9,10.119,10.119,0,0,1-2.386-1.657,4.567,4.567,0,0,1-1.088-1.471,4.765,4.765,0,0,1-.3-3.024q.854-3.175,2.8-3.708a3.771,3.771,0,0,1,4.7,1.923c.368.675.436,1.117.21,1.322a2.584,2.584,0,0,0-.528.492,2.633,2.633,0,0,0-.5.979,4.107,4.107,0,0,0,1.027,2.839q.832,1.2,1.343,1.25a.908.908,0,0,0,.688-.063c.1-.061.2-.154.379-.5a5.39,5.39,0,0,0,.37-.918,7.9,7.9,0,0,0,.4-1.146,3.837,3.837,0,0,0,.156-1.932,1.971,1.971,0,0,0-.314-.517,4.669,4.669,0,0,0-1-.756c-.449-.37-.458-.86-.643-1.465a5.376,5.376,0,0,0-1.442-2.264,5.735,5.735,0,0,0-1.783-.95,6.084,6.084,0,0,0-3.9.11,7.255,7.255,0,0,0-3.476,3.174,6.84,6.84,0,0,0-.718,4.911,5.246,5.246,0,0,0,3.011,4.449,32.817,32.817,0,0,0,5.816,2.548c.512.172,1.593.408,3.029.959a26.172,26.172,0,0,1,2.641,1.18,4.443,4.443,0,0,1,1.837,1.892,5.072,5.072,0,0,1,.544,2.539,6.768,6.768,0,0,1-.5,2.472,5.39,5.39,0,0,1-1.343,2.311,5.686,5.686,0,0,1-1.991,1.111,8.728,8.728,0,0,1-1.831.487l-.1.013v2.591l.273-.032a9.5,9.5,0,0,0,3.93-1.469,9.857,9.857,0,0,0,2-1.752,11.36,11.36,0,0,0,1.242-1.673,14.1,14.1,0,0,0,1.067-2.923,8.886,8.886,0,0,0,.348-2.815A6.431,6.431,0,0,0,1278.258,296.7Z" transform="translate(3858.541 1091.057)"/>
  </g>
</svg>
