<svg id="Component_85_1" data-name="Component 85 – 1" xmlns="http://www.w3.org/2000/svg" width="46.104" height="54.829" viewBox="0 0 46.104 54.829">
  <g id="_Group_" data-name="&lt;Group&gt;">
    <g id="_Group_2" data-name="&lt;Group&gt;" transform="translate(12.979 23.332)">
      <path id="_Path_" data-name="&lt;Path&gt;" d="M2063.087,399.006a18.305,18.305,0,0,1-7.571-4.7,16.763,16.763,0,0,1-4.441-15.6,17.049,17.049,0,0,0,3.986,16.625,16.19,16.19,0,0,0,7.159,4.364Z" transform="translate(-2050.365 -378.706)" fill="#fff"/>
      <path id="_Path_2" data-name="&lt;Path&gt;" d="M2063.376,398.892a11.713,11.713,0,0,1-1.4-.231,13.609,13.609,0,0,1-6.578-3.874,17.719,17.719,0,0,1-4.583-8.512,15.462,15.462,0,0,1-.313-3.587,23.553,23.553,0,0,1,.548-3.906.017.017,0,0,1,0-.008c.005-.025.023-.1.022-.1a.011.011,0,0,0,0,0,17.049,17.049,0,0,0,3.986,16.625,17.808,17.808,0,0,0,2.708,2.281,15.6,15.6,0,0,0,3.787,1.835Z" transform="translate(-2050.365 -378.67)" fill="#fff"/>
    </g>
    <g id="_Group_3" data-name="&lt;Group&gt;" transform="translate(0 11.989)">
      <path id="_Path_3" data-name="&lt;Path&gt;" d="M1999.557,344.794a14.315,14.315,0,0,1-1.609-3.028,22.466,22.466,0,0,1-1.473-7.28c-.155-2.015.011-2.057-.2-3.812a19.376,19.376,0,0,0-.995-4.615c-.065.012.135,1.091.3,2.542a56.835,56.835,0,0,1,.214,6.739c.045,1.243.252,6.9,4.042,10.761a12.4,12.4,0,0,0,4.555,2.9A13.819,13.819,0,0,1,1999.557,344.794Z" transform="translate(-1988.365 -320.521)" fill="#fff"/>
      <path id="_Path_4" data-name="&lt;Path&gt;" d="M1960.618,279.828c0-.562.036-.823.02-1.172,0,0-.018-.227-.046-.429-.158-1.087-1.294-2.079-1.131-2.317.18-.261,1.936.386,3.372,1.751a4.723,4.723,0,0,1,.894,1.157,5.5,5.5,0,0,1,.393.962,8.488,8.488,0,0,1-.315,4.3,7.457,7.457,0,0,1-.412-.786,15.022,15.022,0,0,1-.673-2.278,10.478,10.478,0,0,0-.879-1.989,14.6,14.6,0,0,0-1.152-1.827,21.644,21.644,0,0,1,2.346,7.3,4.15,4.15,0,0,1-1.835-1.678A5.949,5.949,0,0,1,1960.618,279.828Z" transform="translate(-1956.496 -275.853)" fill="#fff"/>
      <path id="_Path_5" data-name="&lt;Path&gt;" d="M1961.728,281.26a4.73,4.73,0,0,1,.941,2.206,9.141,9.141,0,0,1-.02,1.172,5.949,5.949,0,0,0,.581,2.991,4.154,4.154,0,0,0,1.836,1.678,5.158,5.158,0,0,1-.835-1.012,5.88,5.88,0,0,1-.542-1.138,9.3,9.3,0,0,1-.437-1.579c-.087-.445-.061-.445-.161-1.027a10.381,10.381,0,0,0-.355-1.615A4.254,4.254,0,0,0,1961.728,281.26Z" transform="translate(-1958.526 -280.663)" fill="#fff"/>
      <path id="_Path_6" data-name="&lt;Path&gt;" d="M1932.71,349.769a3.889,3.889,0,0,1,1.005-.049,5.184,5.184,0,0,1,1.71.518,10.877,10.877,0,0,1,1.114.558,2.537,2.537,0,0,0,1.112.339,2.642,2.642,0,0,0,1.745-.556,2.809,2.809,0,0,0-.384-.9,3.45,3.45,0,0,0-2.307-1.367,4.2,4.2,0,0,0-4,1.452Z" transform="translate(-1932.71 -340.259)" fill="#fff"/>
      <path id="_Path_7" data-name="&lt;Path&gt;" d="M1932.71,356.04a3.887,3.887,0,0,1,1.005-.049,5.184,5.184,0,0,1,1.71.519,10.882,10.882,0,0,1,1.114.558,2.536,2.536,0,0,0,1.112.339,2.642,2.642,0,0,0,1.745-.556c-.254-.126-.625-.307-1.083-.512a14.038,14.038,0,0,0-1.821-.74,4.468,4.468,0,0,0-2.62-.171A3.46,3.46,0,0,0,1932.71,356.04Z" transform="translate(-1932.71 -346.53)" fill="#fff"/>
    </g>
    <g id="_Group_4" data-name="&lt;Group&gt;" transform="translate(8.5)">
      <path id="_Path_8" data-name="&lt;Path&gt;" d="M2010.672,265.594a20.6,20.6,0,0,1-.16-4.578,16.874,16.874,0,0,1,4.434-10.644,18.625,18.625,0,0,1,2.968-2.623,31.189,31.189,0,0,1,5.979-3.3,14.921,14.921,0,0,0-4.58,1.756,18.881,18.881,0,0,0-6.252,5.386c-4.966,6.837-2.911,14.953-2.684,15.789a16.737,16.737,0,0,0,3.445,6.692A23.225,23.225,0,0,1,2010.672,265.594Z" transform="translate(-2009.763 -235.915)" fill="#fff"/>
      <g id="_Group_5" data-name="&lt;Group&gt;" transform="translate(10.139)">
        <path id="_Path_9" data-name="&lt;Path&gt;" d="M2106.546,170.627c.729-.285,1.089-.362,1.535-.557,0,0,.288-.135.535-.274,1.337-.744,2.064-2.716,2.454-2.622.43.1.46,2.712-.6,5.259a6.6,6.6,0,0,1-1.063,1.739,7.6,7.6,0,0,1-1.057.99,11.82,11.82,0,0,1-5.75,1.723,10.43,10.43,0,0,1,.821-.926,21.044,21.044,0,0,1,2.63-2.009,14.486,14.486,0,0,0,2.152-2.131,20.587,20.587,0,0,0,1.806-2.406,30.211,30.211,0,0,1-8.335,6.68,5.775,5.775,0,0,1,1.272-3.222A8.271,8.271,0,0,1,2106.546,170.627Z" transform="translate(-2101.67 -167.171)" fill="#fff"/>
        <path id="_Path_10" data-name="&lt;Path&gt;" d="M2110.487,172.409a6.6,6.6,0,0,1-2.406,2.321,12.709,12.709,0,0,1-1.535.557,8.271,8.271,0,0,0-3.6,2.243,5.775,5.775,0,0,0-1.272,3.222,7.185,7.185,0,0,1,.9-1.591,8.153,8.153,0,0,1,1.213-1.27,12.792,12.792,0,0,1,1.837-1.352c.535-.335.548-.3,1.257-.719a14.526,14.526,0,0,0,1.926-1.266A5.931,5.931,0,0,0,2110.487,172.409Z" transform="translate(-2101.67 -171.831)" fill="#fff"/>
      </g>
      <g id="_Group_6" data-name="&lt;Group&gt;" transform="translate(5.761 0.839)">
        <path id="_Path_11" data-name="&lt;Path&gt;" d="M2061.99,174.78a5.385,5.385,0,0,1,.562,1.284,7.208,7.208,0,0,1,.175,2.483,14.912,14.912,0,0,1-.173,1.729,3.523,3.523,0,0,0,.111,1.614,3.687,3.687,0,0,0,1.59,2,3.923,3.923,0,0,0,.977-.946,4.812,4.812,0,0,0,.633-3.68,5.847,5.847,0,0,0-3.875-4.48Z" transform="translate(-2061.99 -174.78)" fill="#fff"/>
        <path id="_Path_12" data-name="&lt;Path&gt;" d="M2061.99,174.78a5.385,5.385,0,0,1,.562,1.284,7.208,7.208,0,0,1,.175,2.483,14.912,14.912,0,0,1-.173,1.729,3.523,3.523,0,0,0,.111,1.614,3.687,3.687,0,0,0,1.59,2c.039-.393.09-.967.13-1.664a19.572,19.572,0,0,0,.059-2.739,6.213,6.213,0,0,0-1.079-3.494A4.813,4.813,0,0,0,2061.99,174.78Z" transform="translate(-2061.99 -174.78)" fill="#fff"/>
      </g>
    </g>
    <g id="_Group_7" data-name="&lt;Group&gt;" transform="translate(25.248 11.158)">
      <path id="_Path_13" data-name="&lt;Path&gt;" d="M2161.58,269.049q3.245-.74,4.611,3.246.059.627,9.054.684,3.182.112,3.84.854Q2171.988,266.3,2161.58,269.049Z" transform="translate(-2161.58 -268.316)" fill="#fff"/>
      <path id="_Path_14" data-name="&lt;Path&gt;" d="M2190.967,275.682c-3.054-.706-6.244-.772-6.347-.286-.053.248.741.413,1.421,1.383a4.091,4.091,0,0,1,.647,1.534,7.453,7.453,0,0,0,1.154.321,64.981,64.981,0,0,0,7.9.363q3.182.112,3.84.854a21.019,21.019,0,0,0-1.981-1.42,22.13,22.13,0,0,0-2.543-1.37A21.79,21.79,0,0,0,2190.967,275.682Z" transform="translate(-2182.076 -274.336)" fill="#fff"/>
      <g id="_Group_8" data-name="&lt;Group&gt;" transform="translate(4.156 2.912)">
        <path id="_Path_15" data-name="&lt;Path&gt;" d="M2199.25,294.71q1.159.165,2.408.282c1.707.157,3.316.213,4.807.2a10.167,10.167,0,0,1,6.134,2.078,11.388,11.388,0,0,0-3.137-.773c-.65-.062-.848-.021-2.468-.037-1.156-.012-2.092-.024-3.1-.086-.1-.006-.56-.034-1.171-.085-.529-.044-.292-.032-1.466-.148a6.262,6.262,0,0,1-.89-.128,5.375,5.375,0,0,1-.622-.183c-.061-.157-.126-.316-.2-.479C2199.449,295.128,2199.35,294.913,2199.25,294.71Z" transform="translate(-2199.25 -294.71)" fill="#fff"/>
      </g>
    </g>
    <g id="_Group_9" data-name="&lt;Group&gt;" transform="translate(9.568 9.084)">
      <path id="_Path_16" data-name="&lt;Path&gt;" d="M2022.117,268.781c-.01-1,.053-8.891,6.661-14.063a17.467,17.467,0,0,1,23.939,2.392c-3.1-3.71-7.435-7.313-12.814-7.574-.321-.015-.575-.015-.783-.015-1.488,0-8.186,0-13.53,4.8a17.658,17.658,0,0,0-4.886,7.462,21.53,21.53,0,0,0-1.156,7.311,18.8,18.8,0,0,0,4.221,11.817c.4.475,5.784,6.7,14.349,6.49a18.013,18.013,0,0,0,7.286-1.764c-.814.256-8.878,2.64-16.055-2.676A18.6,18.6,0,0,1,2022.117,268.781Z" transform="translate(-2019.532 -249.52)" fill="#fff"/>
      <path id="_Path_17" data-name="&lt;Path&gt;" d="M2019.46,269.092c-.042-.758-.378-9.306,6.478-15.15a18.824,18.824,0,0,1,11.795-4.393,15.648,15.648,0,0,1,8.7,2.077,44.5,44.5,0,0,1,6.13,5.413s.077.083.078.082,0,0-.009-.012c-3.1-3.71-7.435-7.313-12.814-7.574-.321-.015-.575-.015-.783-.015-1.488,0-8.186,0-13.53,4.8a17.656,17.656,0,0,0-4.886,7.462,21.524,21.524,0,0,0-1.156,7.311,18.8,18.8,0,0,0,4.22,11.817c.4.475,5.784,6.7,14.349,6.49a18.014,18.014,0,0,0,7.286-1.764l-.019.008a20.144,20.144,0,0,1-5.419,1.163,21.13,21.13,0,0,1-8.407-1.462,18.428,18.428,0,0,1-12.01-16.252Z" transform="translate(-2019.445 -249.52)" fill="#fff"/>
      <path id="_Path_18" data-name="&lt;Path&gt;" d="M2034.206,275.723c-.01-1,.053-8.891,6.661-14.063a17.467,17.467,0,0,1,23.94,2.392c-.018.024-5.561-6.435-13.463-6.719a17.94,17.94,0,0,0-11.058,3.685,18.716,18.716,0,0,0-6.865,17.951,17.779,17.779,0,0,0,5.227,9.424,21.018,21.018,0,0,0,12.027,4.887,19.527,19.527,0,0,0,3.69-.077c1.382-.194,3.154-.636,3.155-.631l-.026.007c-.814.256-8.878,2.64-16.055-2.676A18.6,18.6,0,0,1,2034.206,275.723Z" transform="translate(-2031.622 -256.462)" fill="#fff"/>
    </g>
    <g id="_Group_10" data-name="&lt;Group&gt;" transform="translate(21.034 29.613)">
      <path id="_Path_19" data-name="&lt;Path&gt;" d="M2130.683,435.61q.015,6.344.032,12.687a1.319,1.319,0,0,0,.843.635,2.581,2.581,0,0,0,.662.192,4.738,4.738,0,0,0,.656.028,1.967,1.967,0,0,1,1.073.421c.265.04.987.152,1.727.32a1.782,1.782,0,0,1,.7.3,1.64,1.64,0,0,1,.326.321H2123.38a1.821,1.821,0,0,1,.406-.342,2.116,2.116,0,0,1,.951-.279c.374-.043.891-.112,1.579-.236a2.693,2.693,0,0,1,.626-.336,2.722,2.722,0,0,1,.987-.173,1.783,1.783,0,0,0,.772-.157,1.823,1.823,0,0,0,.512-.353,1.867,1.867,0,0,0,.275-.344V435.61Z" transform="translate(-2123.38 -435.61)" fill="#fff"/>
    </g>
    <path id="_Path_20" data-name="&lt;Path&gt;" d="M2130.683,435.61q.015,6.344.032,12.687a1.319,1.319,0,0,0,.843.635,2.581,2.581,0,0,0,.662.192,4.738,4.738,0,0,0,.656.028,1.967,1.967,0,0,1,1.073.421c.265.04.987.152,1.727.32a1.782,1.782,0,0,1,.7.3,1.64,1.64,0,0,1,.326.321H2123.38a1.821,1.821,0,0,1,.406-.342,2.116,2.116,0,0,1,.951-.279c.374-.043.891-.112,1.579-.236a2.693,2.693,0,0,1,.626-.336,2.722,2.722,0,0,1,.987-.173,1.783,1.783,0,0,0,.772-.157,1.823,1.823,0,0,0,.512-.353,1.867,1.867,0,0,0,.275-.344V435.61Z" transform="translate(-2102.346 -405.997)" fill="#fff"/>
    <g id="_Group_11" data-name="&lt;Group&gt;" transform="translate(21.034 43.775)">
      <path id="_Path_21" data-name="&lt;Path&gt;" d="M2136.378,564.411a1.78,1.78,0,0,0-.7-.3c-.125-.028-.249-.055-.37-.079-.157,0-.313,0-.471-.009-1.121-.035-2.243-.038-3.364-.029-2.177.018-4.352.083-6.529.091-.072.01-.141.018-.205.025a2.115,2.115,0,0,0-.951.279,1.824,1.824,0,0,0-.406.342H2136.7A1.643,1.643,0,0,0,2136.378,564.411Z" transform="translate(-2123.38 -563.99)" fill="#fff"/>
    </g>
    <path id="_Path_22" data-name="&lt;Path&gt;" d="M2061.45,382.96h27.158q.044.64-1.11,1.068a9.761,9.761,0,0,0-1.847.384,10.071,10.071,0,0,0-3.681,2.095c-.215.136-1.307.82-2.373,1.365a11.163,11.163,0,0,1-1.646.706l-.062.02a8.452,8.452,0,0,1-2.135.384c-.4.022-.818.03-1.255.028a15.592,15.592,0,0,1-2.5-.2,8.974,8.974,0,0,1-3.971-2.136,8.976,8.976,0,0,0-3.672-2.349Q2061.449,384.284,2061.45,382.96Z" transform="translate(-2047.248 -359.155)" fill="#fff"/>
    <path id="_Path_23" data-name="&lt;Path&gt;" d="M2084.534,384.7c-2.753.213-5.65.276-6.035.285-1.14.023-.419,0-6.491,0-1.829,0-2.776,0-4.184-.086-1.21-.077-2.405-.2-3.155-.278-1.085-.111-2-.223-2.678-.309a4.151,4.151,0,0,0,1.825.958,3.978,3.978,0,0,0,1.019.1q1.281.214,3.672,2.349a8.974,8.974,0,0,0,3.971,2.136,15.586,15.586,0,0,0,2.5.2c.438,0,.858-.005,1.256-.028a8.446,8.446,0,0,0,2.135-.384l.062-.02a11.2,11.2,0,0,0,1.646-.706c1.065-.545,2.157-1.229,2.373-1.365a10.063,10.063,0,0,1,3.681-2.095,9.742,9.742,0,0,1,1.847-.384c.834-.309,1.042-.729,1.093-.939-.51.09-1.2.2-2.033.312C2086.089,384.567,2085.286,384.641,2084.534,384.7Z" transform="translate(-2047.728 -360.196)" fill="#fff"/>
    <path id="_Path_24" data-name="&lt;Path&gt;" d="M2085.363,383.857l-.086.028c-.607.2-1.036.386-1.137.428a8.3,8.3,0,0,1-1.681.4,16.19,16.19,0,0,0-2.933,1.091,20.814,20.814,0,0,1-2.96,1.045,8.6,8.6,0,0,1-3.672-.086c-1.967-.491-1.924-1.285-4.185-1.879-.8-.211-.789-.1-2.648-.512-1.513-.332-2.285-.586-2.647-.684a11.74,11.74,0,0,1-1.964-.726.792.792,0,0,0,.06.31,1.071,1.071,0,0,0,.575.511,4.915,4.915,0,0,0,1.207.439,5.233,5.233,0,0,0,1.063.107,8.976,8.976,0,0,1,3.672,2.349,8.974,8.974,0,0,0,3.971,2.136,15.592,15.592,0,0,0,2.5.2c.438,0,.857-.006,1.255-.028a8.452,8.452,0,0,0,2.135-.384l.062-.02a11.163,11.163,0,0,0,1.646-.706c1.066-.545,2.158-1.229,2.373-1.365a10.071,10.071,0,0,1,3.681-2.095,9.761,9.761,0,0,1,1.847-.384,1.543,1.543,0,0,0,1.11-1.068,7.707,7.707,0,0,1-1.525.483A15.232,15.232,0,0,0,2085.363,383.857Z" transform="translate(-2047.248 -359.155)" fill="#fff"/>
    <path id="_Path_25" data-name="&lt;Path&gt;" d="M2085.363,383.857c-.138.045-.579.186-1.222.456-.861.36-1.477.692-1.813.87,0,0-1.4.735-3.057,1.526a22.14,22.14,0,0,1-2.277,1.02,8.877,8.877,0,0,1-4.3.057,7.229,7.229,0,0,1-2.106-.684c-.388-.2-.316-.217-1.88-1.252-.734-.485-1.068-.694-1.493-.922a11.377,11.377,0,0,0-1.155-.558,17.574,17.574,0,0,0-2.647-.684,11.74,11.74,0,0,1-1.964-.726.792.792,0,0,0,.06.31,1.071,1.071,0,0,0,.575.511,4.915,4.915,0,0,0,1.207.439,5.233,5.233,0,0,0,1.063.107,8.976,8.976,0,0,1,3.672,2.349,8.974,8.974,0,0,0,3.971,2.136,15.592,15.592,0,0,0,2.5.2c.438,0,.857-.006,1.255-.028a8.452,8.452,0,0,0,2.135-.384l.062-.02a11.163,11.163,0,0,0,1.646-.706c1.066-.545,2.158-1.229,2.373-1.365a10.071,10.071,0,0,1,3.681-2.095,9.761,9.761,0,0,1,1.847-.384,1.543,1.543,0,0,0,1.11-1.068,7.707,7.707,0,0,1-1.525.483A15.232,15.232,0,0,0,2085.363,383.857Z" transform="translate(-2047.248 -359.155)" fill="#fff"/>
    <path id="_Path_26" data-name="&lt;Path&gt;" d="M2156.132,443.517a2,2,0,0,0-.826-1.025,2.377,2.377,0,0,0-1.147-.3,3.576,3.576,0,0,0-1.547.211v.93c.064-.012.124-.022.179-.03.452-.068.9-.136,1.205.157a1.084,1.084,0,0,1,.285.911,1.677,1.677,0,0,1-.4.683,1.826,1.826,0,0,1-1.338.512,5.869,5.869,0,0,1-2.349-.37,2.506,2.506,0,0,1-.315-.232c.018-.026.044-.063.077-.106a3.41,3.41,0,0,1,.248-.3,2.043,2.043,0,0,1,.475-.354.614.614,0,0,1-.027-.179v-.8a7.167,7.167,0,0,0-1.24.961c-.028.024-.056.051-.083.077a2.52,2.52,0,0,1-.181-.452,1.659,1.659,0,0,1,.277-1.409,1.633,1.633,0,0,1,1.132-.6l.1-.011V440.13l-.139.013a4.46,4.46,0,0,0-1.422.419,3.764,3.764,0,0,0-.764.7,3.621,3.621,0,0,0-.644,1.146c-.005.019-.011.034-.014.046a3.4,3.4,0,0,0-.087,1.65,2,2,0,0,1,.762,2.3,4.267,4.267,0,0,0,.03,1.255,3.46,3.46,0,0,0,.55,1.289,3.382,3.382,0,0,0,1.073,1,4.222,4.222,0,0,0,1.672.493l.766.046c.081,0,.225.013.415.028l.329.028a8.832,8.832,0,0,1,1.219.222,2.949,2.949,0,0,1,.451.136,3.094,3.094,0,0,1,.513.256,2.7,2.7,0,0,0-.371-.5,2.64,2.64,0,0,0-.512-.427,2.82,2.82,0,0,0-1-.375,4.7,4.7,0,0,0-1.33-.138,2.916,2.916,0,0,1-1.964-.74,2.444,2.444,0,0,1-.593-.876,2.924,2.924,0,0,1-.146-.552,4.793,4.793,0,0,1-.045-.525c0-.095,0-.179-.005-.215,0-.151,0-.279,0-.374a3.446,3.446,0,0,0,1.481.35,5.563,5.563,0,0,0,1.21.1,6.012,6.012,0,0,0,3.36-1.211A2.111,2.111,0,0,0,2156.132,443.517Z" transform="translate(-2123.824 -410.018)" fill="#fff"/>
    <path id="_Path_27" data-name="&lt;Path&gt;" d="M2142.951,291.341a3.615,3.615,0,0,0-.772-1.04,3.98,3.98,0,0,0-1.216-.734,9.827,9.827,0,0,0-1.8-.541c-.805-.194-.857-.165-1.516-.342-.406-.108-.709-.207-1.315-.406a14.558,14.558,0,0,1-1.568-.555,6.21,6.21,0,0,1-1.466-1.017,2.822,2.822,0,0,1-.669-.9,2.927,2.927,0,0,1-.184-1.858q.524-1.949,1.721-2.277a2.317,2.317,0,0,1,2.889,1.182c.226.415.268.685.129.811a1.605,1.605,0,0,0-.324.3,1.632,1.632,0,0,0-.307.6,2.527,2.527,0,0,0,.631,1.744q.511.741.825.769a.558.558,0,0,0,.423-.039c.063-.037.122-.095.233-.308a3.322,3.322,0,0,0,.227-.565,4.828,4.828,0,0,0,.246-.7,2.351,2.351,0,0,0,.1-1.186,1.231,1.231,0,0,0-.193-.319,2.891,2.891,0,0,0-.615-.463c-.276-.228-.281-.528-.4-.9a3.3,3.3,0,0,0-.886-1.392,3.57,3.57,0,0,0-1.1-.584,3.743,3.743,0,0,0-2.395.068,4.462,4.462,0,0,0-2.136,1.949,4.206,4.206,0,0,0-.441,3.018,3.22,3.22,0,0,0,1.851,2.733,20.031,20.031,0,0,0,3.572,1.566c.314.106.979.25,1.861.588a16.385,16.385,0,0,1,1.623.726,2.725,2.725,0,0,1,1.128,1.163,3.111,3.111,0,0,1,.334,1.56,4.166,4.166,0,0,1-.306,1.519,3.317,3.317,0,0,1-.825,1.419,3.475,3.475,0,0,1-1.223.684,5.429,5.429,0,0,1-1.125.3l-.061.008v1.591c.04,0,.1-.01.167-.019a5.853,5.853,0,0,0,2.415-.9,6.13,6.13,0,0,0,1.227-1.077,6.96,6.96,0,0,0,.763-1.028,8.671,8.671,0,0,0,.656-1.8,5.445,5.445,0,0,0,.214-1.73A3.952,3.952,0,0,0,2142.951,291.341Z" transform="translate(-2109.116 -267.954)" fill="#fff"/>
  </g>
  <text id="Dr._Lamia_Rageh_" data-name="Dr. Lamia Rageh " transform="translate(8.104 53.829)" fill="#fff" font-size="5" font-family="Helvetica"><tspan x="0" y="0">Dr. Lamia Rageh</tspan></text>
</svg>
