<svg xmlns="http://www.w3.org/2000/svg" width="27.081" height="27.081" viewBox="0 0 27.081 27.081">
  <g id="Group_14729" data-name="Group 14729" transform="translate(-12924.717 -6286.144)">
    <path id="Path_33012" data-name="Path 33012" d="M13.54,0A13.54,13.54,0,1,1,0,13.54,13.54,13.54,0,0,1,13.54,0Z" transform="translate(12924.717 6286.144)" opacity="0.084"/>
    <path id="Shape_8" data-name="Shape 8" d="M1556.1,3644.455a.1.1,0,0,1-.026-.023,2.508,2.508,0,0,0-1.838-.671l-.021-.047a.015.015,0,0,1,.013,0,2.195,2.195,0,0,0,1.13-.447c.039-.128-.008-.2-.148-.216a3.672,3.672,0,0,0-.882.207c.335-.207.465-.353.391-.429a1.754,1.754,0,0,0-1.06.5c.139-.23.192-.354.157-.377a3.042,3.042,0,0,0-.469.384,7.225,7.225,0,0,0-.682.844l-.009.023a7.392,7.392,0,0,0-.947,2.128l-.069.054-.013.012a3.518,3.518,0,0,0-.978-.822,11.614,11.614,0,0,0-1.608-.825,13.978,13.978,0,0,0-2.047-.831,1.973,1.973,0,0,0,1.125,1.775v.014a2.461,2.461,0,0,0-.769.111c.047.694.556,1.169,1.521,1.435l0,.012a1.126,1.126,0,0,0-.934.372,1.683,1.683,0,0,0,1.691.865,1.146,1.146,0,0,0-.37.266.534.534,0,0,0-.148.529.936.936,0,0,0,.947.424h0l.026.031-.013.013a3.557,3.557,0,0,1-2.881,1.078l-.017.01a3.691,3.691,0,0,1-2.216-.96,6.814,6.814,0,0,0,3.172,2.421,7.759,7.759,0,0,0,4.505.106h.026a7.157,7.157,0,0,0,3.706-2.5,5,5,0,0,0,.882-1.9,1.837,1.837,0,0,0,1.646-.636l-.008-.013a3.389,3.389,0,0,1-1.482-.084v-.08s0,0,0,0c.8-.088,1.278-.34,1.43-.755a2.312,2.312,0,0,1-1.66.018A3.423,3.423,0,0,0,1556.1,3644.455Z" transform="translate(11386.809 2651.748)"/>
  </g>
</svg>
