<svg xmlns="http://www.w3.org/2000/svg" width="27.081" height="27.081" viewBox="0 0 27.081 27.081">
  <g id="Group_14727" data-name="Group 14727" transform="translate(-12989.355 -6286.144)">
    <path id="Path_33014" data-name="Path 33014" d="M13.54,0A13.54,13.54,0,1,1,0,13.54,13.54,13.54,0,0,1,13.54,0Z" transform="translate(12989.355 6286.144)" opacity="0.084"/>
    <path id="Shape_11" data-name="Shape 11" d="M1645.835,3645.71l.525.649s1.081-.8,1.442-.4,1.736,5.248,2.2,6.143c.4.784,1.507,1.821,2.72,1.079s5.243-3.982,5.964-7.81-4.85-3.026-5.44.309c1.474-.834,2.262.338,1.507,1.667s-1.442,2.193-1.8,2.193-.637-.889-1.049-2.44c-.426-1.605-.423-4.5-2.2-4.167C1648.031,3643.241,1645.835,3645.71,1645.835,3645.71Z" transform="translate(11350.578 2652.716)"/>
  </g>
</svg>
